<?xml version="1.0" standalone="no"?><svg xmlns="http://www.w3.org/2000/svg" viewBox="0 0 1440 320"><path fill="lightgrey" fill-opacity="1" d="M0,160L40,144C80,128,160,96,240,85.3C320,75,400,85,480,122.7C560,160,640,224,720,245.3C800,267,880,245,960,208C1040,171,1120,117,1200,106.7C1280,96,1360,128,1400,144L1440,160L1440,320L1400,320C1360,320,1280,320,1200,320C1120,320,1040,320,960,320C880,320,800,320,720,320C640,320,560,320,480,320C400,320,320,320,240,320C160,320,80,320,40,320L0,320Z"></path></svg>